<svg xmlns="http://www.w3.org/2000/svg" width="34.981" height="34.118" viewBox="0 0 34.981 34.118">
  <path id="Path_48" data-name="Path 48" d="M153.809,107.44a17.493,17.493,0,0,0-5.528,34.088c.875.16,1.194-.379,1.194-.843,0-.416-.015-1.515-.024-2.975-4.865,1.058-5.892-2.344-5.892-2.344a4.633,4.633,0,0,0-1.942-2.559c-1.588-1.086.12-1.063.12-1.063a3.672,3.672,0,0,1,2.679,1.8A3.724,3.724,0,0,0,149.508,135a3.739,3.739,0,0,1,1.11-2.339c-3.884-.441-7.967-1.941-7.967-8.645a6.762,6.762,0,0,1,1.8-4.693,6.284,6.284,0,0,1,.172-4.629s1.468-.47,4.809,1.793a16.587,16.587,0,0,1,8.757,0c3.339-2.263,4.8-1.793,4.8-1.793a6.285,6.285,0,0,1,.175,4.629,6.75,6.75,0,0,1,1.8,4.693c0,6.719-4.09,8.2-7.986,8.631a4.176,4.176,0,0,1,1.188,3.239c0,2.339-.021,4.225-.021,4.8,0,.467.316,1.011,1.2.841a17.493,17.493,0,0,0-5.541-34.086Z" transform="translate(-136.32 -107.44)" fill="#68676a" fill-rule="evenodd"/>
</svg>
